<?xml version="1.0" encoding="utf-8"?>
<!-- Generator: Adobe Illustrator 22.1.0, SVG Export Plug-In . SVG Version: 6.00 Build 0)  -->
<svg version="1.1" xmlns="http://www.w3.org/2000/svg" xmlns:xlink="http://www.w3.org/1999/xlink" x="0px" y="0px"
	 viewBox="0 0 400 400" style="enable-background:new 0 0 400 400;" xml:space="preserve">
<style type="text/css">
	.st0{fill:#FFFFFF;}
	.st1{clip-path:url(#SVGID_2_);fill:#F6CD5B;}
	.st2{clip-path:url(#SVGID_2_);fill:#FFFFFF;}
	.st3{clip-path:url(#SVGID_2_);fill:#E6E6E6;}
	.st4{clip-path:url(#SVGID_2_);fill:#414042;}
	.st5{clip-path:url(#SVGID_2_);fill:#070707;}
	.st6{clip-path:url(#SVGID_2_);fill:#F0F0F0;}
</style>
<g id="Layer_1">
	<rect x="1" y="1" class="st0" width="399" height="399"/>
	<g>
		<defs>
			<rect id="SVGID_1_" x="-28.9" y="-29" width="663.7" height="670"/>
		</defs>
		<clipPath id="SVGID_2_">
			<use xlink:href="#SVGID_1_"  style="overflow:visible;"/>
		</clipPath>
		<path class="st1" d="M409,189.9c0,120.9-98,218.9-218.9,218.9c-120.9,0-218.9-98-218.9-218.9S69.1-29,190.1-29
			C311-29,409,69,409,189.9"/>
		<path class="st2" d="M338.8,241.1c1.6-1.6,1.9-4,0.7-5.9l-35-56.5c-0.2-0.3-0.4-0.6-0.7-0.9L254,128.1c-7.8-7.8-20.5-7.8-28.3,0
			c-4.3,4.3-6.2,10.1-5.8,15.7c-5.6-0.4-11.4,1.5-15.7,5.8c-4.3,4.3-6.2,10-5.8,15.6l108.2,108.2L338.8,241.1z"/>
		<path class="st3" d="M216.7,160.4c0.6-0.3,1.2-0.4,1.7-0.4c0.1,0,0.2,0,0.3,0l19,1.5l-1.5-19c-0.1-0.7,0-1.9,1.1-2.9
			c0.9-0.9,1.9-1.1,2.6-1.1c0.7,0,1.7,0.2,2.6,1.1l48.8,48.8l29.5,47.7l-14.3,14.3L216.7,160.4z"/>
		<path class="st2" d="M198.5,165.2c0,0,0,0.1,0,0.1c-5.6-0.4-11.4,1.5-15.7,5.8c-2.7,2.7-4.5,5.9-5.3,9.4l-38.4-38.4
			c-7.8-7.8-20.5-7.8-28.3,0c-7.8,7.8-7.8,20.5,0,28.3l71,71h-25.9c-6.2,0-12,2.4-16.4,6.8c-4.4,4.4-6.8,10.2-6.8,16.4
			c0,12.8,10.4,23.2,23.1,23.2l81.9,0.8l36.5,13.3c1.8,0.6,3.7,0.2,5-1.1l27.3-27.3L198.5,165.2z"/>
		<path class="st4" d="M275.9,304.8L275.9,304.8c-0.9,0-1.7-0.2-2.6-0.5l-36.1-13.1l-81.4-0.8c-14.2,0-25.8-11.6-25.8-25.9
			c0-6.9,2.7-13.4,7.6-18.3c4.9-4.9,11.4-7.6,18.3-7.6h19.3l-66.3-66.3c-8.8-8.9-8.8-23.3,0-32.1c4.3-4.3,10-6.6,16.1-6.6
			c6.1,0,11.8,2.4,16.1,6.6l35.4,35.4c1.1-2.4,2.6-4.5,4.5-6.4c4-4,9.3-6.3,14.9-6.6c0.3-5.6,2.6-10.9,6.6-14.9
			c4-4,9.3-6.3,14.9-6.6c0.3-5.6,2.6-10.9,6.6-14.9c4.3-4.3,10-6.6,16.1-6.6c6.1,0,11.8,2.4,16.1,6.6l49.8,49.8
			c0.4,0.4,0.8,0.9,1.1,1.3l35,56.5c1.8,3,1.4,6.8-1.1,9.3l-59.5,59.5C279.8,304,277.9,304.8,275.9,304.8 M155.9,244
			c-5.5,0-10.6,2.1-14.5,6c-3.9,3.9-6,9-6,14.5c0,11.3,9.2,20.5,20.4,20.5l82.4,0.8l37,13.4c0.8,0.3,1.6,0.1,2.2-0.5l59.5-59.5
			c0.7-0.7,0.8-1.7,0.3-2.6l-35-56.5c-0.1-0.1-0.2-0.3-0.3-0.4L252.1,130c-3.3-3.3-7.6-5.1-12.2-5.1c-4.6,0-9,1.8-12.2,5.1
			c-3.6,3.6-5.4,8.5-5,13.6l0.2,3.2l-3.2-0.2c-5.1-0.4-10,1.4-13.6,5c-3.6,3.6-5.4,8.5-5,13.6l0.2,3.2l-3.2-0.2
			c-5.1-0.4-10,1.4-13.6,5c-2.3,2.3-3.8,5.1-4.6,8.1l-1.1,4.7L137.1,144c-3.3-3.3-7.6-5.1-12.2-5.1c-4.6,0-9,1.8-12.2,5.1
			c-6.7,6.7-6.7,17.7,0,24.4l75.6,75.6H155.9z"/>
		<path class="st5" d="M107.7,177.8c-21,0-38.1-17.1-38.1-38.1s17.1-38.1,38.1-38.1c21,0,38.1,17.1,38.1,38.1c0,1.9-0.1,3.7-0.4,5.5
			l7.3,7.3c1.2-4.1,1.8-8.3,1.8-12.8c0-25.8-21-46.8-46.8-46.8c-25.8,0-46.8,21-46.8,46.8c0,25.8,21,46.8,46.8,46.8
			c4.4,0,8.7-0.6,12.8-1.8l-7.3-7.3C111.4,177.7,109.5,177.8,107.7,177.8"/>
		<path class="st6" d="M130,146.3c3.5,3.5,3.1,9.7-1,13.9c-4.1,4.1-10.3,4.5-13.8,1c-3.5-3.5-3.1-9.8,1-13.8
			C120.3,143.2,126.5,142.8,130,146.3"/>
		<path class="st6" d="M154.1,250.8c6.7,0,12.1,6.3,12.1,14c0,7.7-5.4,14-12.1,14c-6.7,0-12.1-6.3-12.1-14
			C142,257.1,147.4,250.8,154.1,250.8"/>
	</g>
</g>
<g id="Layer_2">
	<g>
	</g>
	<g>
	</g>
	<g>
	</g>
	<g>
	</g>
	<g>
	</g>
	<g>
	</g>
	<g>
	</g>
	<g>
	</g>
	<g>
	</g>
	<g>
	</g>
	<g>
	</g>
	<g>
	</g>
	<g>
	</g>
	<g>
	</g>
	<g>
	</g>
</g>
</svg>
